<?xml version="1.0" encoding="UTF-8" standalone="no"?>
<!DOCTYPE svg PUBLIC "-//W3C//DTD SVG 1.1//EN"
 "http://www.w3.org/Graphics/SVG/1.1/DTD/svg11.dtd">
<!-- Generated by graphviz version 2.40.1 (20161225.0304)
 -->
<!-- Title: dependencies Pages: 1 -->
<svg width="1844pt" height="284pt"
 viewBox="0.00 0.00 1844.00 284.00" xmlns="http://www.w3.org/2000/svg" xmlns:xlink="http://www.w3.org/1999/xlink">
<g id="graph0" class="graph" transform="scale(1 1) rotate(0) translate(4 280)">
<title>dependencies</title>
<polygon fill="#ffffff" stroke="transparent" points="-4,4 -4,-280 1840,-280 1840,4 -4,4"/>
<text text-anchor="start" x="897.0091" y="-42.4" font-family="sans-serif" font-weight="bold" font-size="14.00" fill="#000000">Legend</text>
<polygon fill="#ffffb3" stroke="transparent" points="684,-10 684,-30 704,-30 704,-10 684,-10"/>
<text text-anchor="start" x="707.629" y="-15.4" font-family="sans-serif" font-size="14.00" fill="#000000"> &#160;Declarations</text>
<polygon fill="#8dd3c7" stroke="transparent" points="797,-10 797,-30 817,-30 817,-10 797,-10"/>
<text text-anchor="start" x="820.7251" y="-15.4" font-family="sans-serif" font-size="14.00" fill="#000000"> &#160;Module</text>
<polygon fill="#80b1d3" stroke="transparent" points="883,-10 883,-30 903,-30 903,-10 883,-10"/>
<text text-anchor="start" x="906.7812" y="-15.4" font-family="sans-serif" font-size="14.00" fill="#000000"> &#160;Bootstrap</text>
<polygon fill="#fdb462" stroke="transparent" points="980,-10 980,-30 1000,-30 1000,-10 980,-10"/>
<text text-anchor="start" x="1003.6732" y="-15.4" font-family="sans-serif" font-size="14.00" fill="#000000"> &#160;Providers</text>
<polygon fill="#fb8072" stroke="transparent" points="1076,-10 1076,-30 1096,-30 1096,-10 1076,-10"/>
<text text-anchor="start" x="1099.7258" y="-15.4" font-family="sans-serif" font-size="14.00" fill="#000000"> &#160;Exports</text>
<g id="clust1" class="cluster">
<title>cluster_AppModule</title>
<polygon fill="none" stroke="#000000" stroke-dasharray="1,5" points="8,-70 8,-268 895,-268 895,-70 8,-70"/>
</g>
<g id="clust2" class="cluster">
<title>cluster_AppModule_declarations</title>
<polygon fill="none" stroke="#000000" points="168,-78 168,-130 887,-130 887,-78 168,-78"/>
</g>
<g id="clust8" class="cluster">
<title>cluster_AppModule_imports</title>
<polygon fill="none" stroke="#000000" points="16,-78 16,-130 160,-130 160,-78 16,-78"/>
</g>
<g id="clust10" class="cluster">
<title>cluster_AppModule_bootstrap</title>
<polygon fill="none" stroke="#000000" points="400,-208 400,-260 524,-260 524,-208 400,-208"/>
</g>
<g id="clust12" class="cluster">
<title>cluster_AppPollModule</title>
<polygon fill="none" stroke="#000000" stroke-dasharray="1,5" points="903,-70 903,-195 1521,-195 1521,-70 903,-70"/>
</g>
<g id="clust13" class="cluster">
<title>cluster_AppPollModule_declarations</title>
<polygon fill="none" stroke="#000000" points="1079,-78 1079,-130 1391,-130 1391,-78 1079,-78"/>
</g>
<g id="clust16" class="cluster">
<title>cluster_AppPollModule_imports</title>
<polygon fill="none" stroke="#000000" points="1399,-78 1399,-130 1513,-130 1513,-78 1399,-78"/>
</g>
<g id="clust19" class="cluster">
<title>cluster_AppPollModule_providers</title>
<polygon fill="none" stroke="#000000" points="911,-78 911,-130 1071,-130 1071,-78 911,-78"/>
</g>
<g id="clust32" class="cluster">
<title>cluster_UserModule</title>
<polygon fill="none" stroke="#000000" stroke-dasharray="1,5" points="1529,-70 1529,-195 1828,-195 1828,-70 1529,-70"/>
</g>
<g id="clust33" class="cluster">
<title>cluster_UserModule_declarations</title>
<polygon fill="none" stroke="#000000" points="1537,-78 1537,-130 1820,-130 1820,-78 1537,-78"/>
</g>
<!-- AppComponent -->
<g id="node1" class="node">
<title>AppComponent</title>
<polygon fill="#ffffb3" stroke="#000000" points="878.9399,-122 773.0601,-122 773.0601,-86 878.9399,-86 878.9399,-122"/>
<text text-anchor="middle" x="826" y="-99.8" font-family="Times,serif" font-size="14.00" fill="#000000">AppComponent</text>
</g>
<!-- AppModule -->
<g id="node6" class="node">
<title>AppModule</title>
<polygon fill="#8dd3c7" stroke="#000000" points="503.6571,-187 500.6571,-191 479.6571,-191 476.6571,-187 420.3429,-187 420.3429,-151 503.6571,-151 503.6571,-187"/>
<text text-anchor="middle" x="462" y="-164.8" font-family="Times,serif" font-size="14.00" fill="#000000">AppModule</text>
</g>
<!-- AppComponent&#45;&gt;AppModule -->
<g id="edge1" class="edge">
<title>AppComponent&#45;&gt;AppModule</title>
<path fill="none" stroke="#000000" d="M826,-122.2921C826,-144.2057 826,-178 826,-178 826,-178 513.7554,-178 513.7554,-178"/>
<polygon fill="#000000" stroke="#000000" points="513.7555,-174.5001 503.7554,-178 513.7554,-181.5001 513.7555,-174.5001"/>
</g>
<!-- MenuComponent -->
<g id="node2" class="node">
<title>MenuComponent</title>
<polygon fill="#ffffb3" stroke="#000000" points="754.9916,-122 641.0084,-122 641.0084,-86 754.9916,-86 754.9916,-122"/>
<text text-anchor="middle" x="698" y="-99.8" font-family="Times,serif" font-size="14.00" fill="#000000">MenuComponent</text>
</g>
<!-- MenuComponent&#45;&gt;AppModule -->
<g id="edge2" class="edge">
<title>MenuComponent&#45;&gt;AppModule</title>
<path fill="none" stroke="#000000" d="M698,-122.1061C698,-141.3391 698,-169 698,-169 698,-169 513.9201,-169 513.9201,-169"/>
<polygon fill="#000000" stroke="#000000" points="513.9202,-165.5001 503.9201,-169 513.9201,-172.5001 513.9202,-165.5001"/>
</g>
<!-- PageNotFoundComponent -->
<g id="node3" class="node">
<title>PageNotFoundComponent</title>
<polygon fill="#ffffb3" stroke="#000000" points="622.8243,-122 457.1757,-122 457.1757,-86 622.8243,-86 622.8243,-122"/>
<text text-anchor="middle" x="540" y="-99.8" font-family="Times,serif" font-size="14.00" fill="#000000">PageNotFoundComponent</text>
</g>
<!-- PageNotFoundComponent&#45;&gt;AppModule -->
<g id="edge3" class="edge">
<title>PageNotFoundComponent&#45;&gt;AppModule</title>
<path fill="none" stroke="#000000" d="M480.5831,-122.1061C480.5831,-122.1061 480.5831,-140.991 480.5831,-140.991"/>
<polygon fill="#000000" stroke="#000000" points="477.0832,-140.9909 480.5831,-150.991 484.0832,-140.991 477.0832,-140.9909"/>
</g>
<!-- ShellComponent -->
<g id="node4" class="node">
<title>ShellComponent</title>
<polygon fill="#ffffb3" stroke="#000000" points="439.1109,-122 328.8891,-122 328.8891,-86 439.1109,-86 439.1109,-122"/>
<text text-anchor="middle" x="384" y="-99.8" font-family="Times,serif" font-size="14.00" fill="#000000">ShellComponent</text>
</g>
<!-- ShellComponent&#45;&gt;AppModule -->
<g id="edge4" class="edge">
<title>ShellComponent&#45;&gt;AppModule</title>
<path fill="none" stroke="#000000" d="M429.6136,-122.1061C429.6136,-122.1061 429.6136,-140.991 429.6136,-140.991"/>
<polygon fill="#000000" stroke="#000000" points="426.1137,-140.9909 429.6136,-150.991 433.1137,-140.991 426.1137,-140.9909"/>
</g>
<!-- WelcomeComponent -->
<g id="node5" class="node">
<title>WelcomeComponent</title>
<polygon fill="#ffffb3" stroke="#000000" points="310.472,-122 175.528,-122 175.528,-86 310.472,-86 310.472,-122"/>
<text text-anchor="middle" x="243" y="-99.8" font-family="Times,serif" font-size="14.00" fill="#000000">WelcomeComponent</text>
</g>
<!-- WelcomeComponent&#45;&gt;AppModule -->
<g id="edge5" class="edge">
<title>WelcomeComponent&#45;&gt;AppModule</title>
<path fill="none" stroke="#000000" d="M243,-122.0225C243,-139.3734 243,-163 243,-163 243,-163 410.2923,-163 410.2923,-163"/>
<polygon fill="#000000" stroke="#000000" points="410.2923,-166.5001 420.2923,-163 410.2923,-159.5001 410.2923,-166.5001"/>
</g>
<!-- AppComponent  -->
<g id="node8" class="node">
<title>AppComponent </title>
<polygon fill="#80b1d3" stroke="#000000" points="516.439,-252 407.561,-252 407.561,-216 516.439,-216 516.439,-252"/>
<text text-anchor="middle" x="462" y="-229.8" font-family="Times,serif" font-size="14.00" fill="#000000">AppComponent </text>
</g>
<!-- AppModule&#45;&gt;AppComponent  -->
<g id="edge7" class="edge">
<title>AppModule&#45;&gt;AppComponent </title>
<path fill="none" stroke="#000000" stroke-dasharray="1,5" d="M462,-187.1061C462,-187.1061 462,-205.991 462,-205.991"/>
<polygon fill="#000000" stroke="#000000" points="458.5001,-205.9909 462,-215.991 465.5001,-205.991 458.5001,-205.9909"/>
</g>
<!-- AppRoutingModule -->
<g id="node7" class="node">
<title>AppRoutingModule</title>
<polygon fill="#8dd3c7" stroke="#000000" points="152.2744,-122 149.2744,-126 128.2744,-126 125.2744,-122 23.7256,-122 23.7256,-86 152.2744,-86 152.2744,-122"/>
<text text-anchor="middle" x="88" y="-99.8" font-family="Times,serif" font-size="14.00" fill="#000000">AppRoutingModule</text>
</g>
<!-- AppRoutingModule&#45;&gt;AppModule -->
<g id="edge6" class="edge">
<title>AppRoutingModule&#45;&gt;AppModule</title>
<path fill="none" stroke="#000000" d="M88,-122.2843C88,-143.3211 88,-175 88,-175 88,-175 410.1861,-175 410.1861,-175"/>
<polygon fill="#000000" stroke="#000000" points="410.1861,-178.5001 420.1861,-175 410.1861,-171.5001 410.1861,-178.5001"/>
</g>
<!-- AppPollComponent -->
<g id="node9" class="node">
<title>AppPollComponent</title>
<polygon fill="#ffffb3" stroke="#000000" points="1383.0028,-122 1254.9972,-122 1254.9972,-86 1383.0028,-86 1383.0028,-122"/>
<text text-anchor="middle" x="1319" y="-99.8" font-family="Times,serif" font-size="14.00" fill="#000000">AppPollComponent</text>
</g>
<!-- AppPollModule -->
<g id="node11" class="node">
<title>AppPollModule</title>
<polygon fill="#8dd3c7" stroke="#000000" points="1293.2204,-187 1290.2204,-191 1269.2204,-191 1266.2204,-187 1186.7796,-187 1186.7796,-151 1293.2204,-151 1293.2204,-187"/>
<text text-anchor="middle" x="1240" y="-164.8" font-family="Times,serif" font-size="14.00" fill="#000000">AppPollModule</text>
</g>
<!-- AppPollComponent&#45;&gt;AppPollModule -->
<g id="edge8" class="edge">
<title>AppPollComponent&#45;&gt;AppPollModule</title>
<path fill="none" stroke="#000000" d="M1274.0543,-122.1061C1274.0543,-122.1061 1274.0543,-140.991 1274.0543,-140.991"/>
<polygon fill="#000000" stroke="#000000" points="1270.5544,-140.9909 1274.0543,-150.991 1277.5544,-140.991 1270.5544,-140.9909"/>
</g>
<!-- AppPollListComponent -->
<g id="node10" class="node">
<title>AppPollListComponent</title>
<polygon fill="#ffffb3" stroke="#000000" points="1236.7814,-122 1087.2186,-122 1087.2186,-86 1236.7814,-86 1236.7814,-122"/>
<text text-anchor="middle" x="1162" y="-99.8" font-family="Times,serif" font-size="14.00" fill="#000000">AppPollListComponent</text>
</g>
<!-- AppPollListComponent&#45;&gt;AppPollModule -->
<g id="edge9" class="edge">
<title>AppPollListComponent&#45;&gt;AppPollModule</title>
<path fill="none" stroke="#000000" d="M1211.8903,-122.1061C1211.8903,-122.1061 1211.8903,-140.991 1211.8903,-140.991"/>
<polygon fill="#000000" stroke="#000000" points="1208.3903,-140.9909 1211.8903,-150.991 1215.3903,-140.991 1208.3903,-140.9909"/>
</g>
<!-- SharedModule -->
<g id="node12" class="node">
<title>SharedModule</title>
<polygon fill="#8dd3c7" stroke="#000000" points="1505.4231,-122 1502.4231,-126 1481.4231,-126 1478.4231,-122 1406.5769,-122 1406.5769,-86 1505.4231,-86 1505.4231,-122"/>
<text text-anchor="middle" x="1456" y="-99.8" font-family="Times,serif" font-size="14.00" fill="#000000">SharedModule</text>
</g>
<!-- SharedModule&#45;&gt;AppPollModule -->
<g id="edge10" class="edge">
<title>SharedModule&#45;&gt;AppPollModule</title>
<path fill="none" stroke="#000000" d="M1439.5963,-122.0225C1439.5963,-139.3734 1439.5963,-163 1439.5963,-163 1439.5963,-163 1303.2259,-163 1303.2259,-163"/>
<polygon fill="#000000" stroke="#000000" points="1303.226,-159.5001 1293.2259,-163 1303.2259,-166.5001 1303.226,-159.5001"/>
</g>
<!-- UserModule -->
<g id="node16" class="node">
<title>UserModule</title>
<polygon fill="#8dd3c7" stroke="#000000" points="1644.9762,-187 1641.9762,-191 1620.9762,-191 1617.9762,-187 1559.0238,-187 1559.0238,-151 1644.9762,-151 1644.9762,-187"/>
<text text-anchor="middle" x="1602" y="-164.8" font-family="Times,serif" font-size="14.00" fill="#000000">UserModule</text>
</g>
<!-- SharedModule&#45;&gt;UserModule -->
<g id="edge14" class="edge">
<title>SharedModule&#45;&gt;UserModule</title>
<path fill="none" stroke="#000000" d="M1472.4037,-122.2843C1472.4037,-143.3211 1472.4037,-175 1472.4037,-175 1472.4037,-175 1548.8463,-175 1548.8463,-175"/>
<polygon fill="#000000" stroke="#000000" points="1548.8463,-178.5001 1558.8463,-175 1548.8463,-171.5001 1548.8463,-178.5001"/>
</g>
<!-- AppPollService -->
<g id="node13" class="node">
<title>AppPollService</title>
<ellipse fill="#fdb462" stroke="#000000" cx="991" cy="-104" rx="72.369" ry="18"/>
<text text-anchor="middle" x="991" y="-99.8" font-family="Times,serif" font-size="14.00" fill="#000000">AppPollService</text>
</g>
<!-- AppPollService&#45;&gt;AppPollModule -->
<g id="edge11" class="edge">
<title>AppPollService&#45;&gt;AppPollModule</title>
<path fill="none" stroke="#000000" d="M991,-122.027C991,-138.3976 991,-160 991,-160 991,-160 1176.8887,-160 1176.8887,-160"/>
<polygon fill="#000000" stroke="#000000" points="1176.8887,-163.5001 1186.8887,-160 1176.8886,-156.5001 1176.8887,-163.5001"/>
</g>
<!-- KycFormComponent -->
<g id="node14" class="node">
<title>KycFormComponent</title>
<polygon fill="#ffffb3" stroke="#000000" points="1812.4874,-122 1677.5126,-122 1677.5126,-86 1812.4874,-86 1812.4874,-122"/>
<text text-anchor="middle" x="1745" y="-99.8" font-family="Times,serif" font-size="14.00" fill="#000000">KycFormComponent</text>
</g>
<!-- KycFormComponent&#45;&gt;UserModule -->
<g id="edge12" class="edge">
<title>KycFormComponent&#45;&gt;UserModule</title>
<path fill="none" stroke="#000000" d="M1745,-122.1061C1745,-141.3391 1745,-169 1745,-169 1745,-169 1655.2928,-169 1655.2928,-169"/>
<polygon fill="#000000" stroke="#000000" points="1655.2928,-165.5001 1645.2928,-169 1655.2927,-172.5001 1655.2928,-165.5001"/>
</g>
<!-- LoginComponent -->
<g id="node15" class="node">
<title>LoginComponent</title>
<polygon fill="#ffffb3" stroke="#000000" points="1659.2758,-122 1544.7242,-122 1544.7242,-86 1659.2758,-86 1659.2758,-122"/>
<text text-anchor="middle" x="1602" y="-99.8" font-family="Times,serif" font-size="14.00" fill="#000000">LoginComponent</text>
</g>
<!-- LoginComponent&#45;&gt;UserModule -->
<g id="edge13" class="edge">
<title>LoginComponent&#45;&gt;UserModule</title>
<path fill="none" stroke="#000000" d="M1602,-122.1061C1602,-122.1061 1602,-140.991 1602,-140.991"/>
<polygon fill="#000000" stroke="#000000" points="1598.5001,-140.9909 1602,-150.991 1605.5001,-140.991 1598.5001,-140.9909"/>
</g>
</g>
</svg>
