<?xml version="1.0" encoding="UTF-8" standalone="no"?>
<!DOCTYPE svg PUBLIC "-//W3C//DTD SVG 1.1//EN"
 "http://www.w3.org/Graphics/SVG/1.1/DTD/svg11.dtd">
<!-- Generated by graphviz version 2.40.1 (20161225.0304)
 -->
<!-- Title: dependencies Pages: 1 -->
<svg width="504pt" height="211pt"
 viewBox="0.00 0.00 504.00 211.00" xmlns="http://www.w3.org/2000/svg" xmlns:xlink="http://www.w3.org/1999/xlink">
<g id="graph0" class="graph" transform="scale(1 1) rotate(0) translate(4 207)">
<title>dependencies</title>
<polygon fill="#ffffff" stroke="transparent" points="-4,4 -4,-207 500,-207 500,4 -4,4"/>
<text text-anchor="start" x="227.0091" y="-42.4" font-family="sans-serif" font-weight="bold" font-size="14.00" fill="#000000">Legend</text>
<polygon fill="#ffffb3" stroke="transparent" points="14,-10 14,-30 34,-30 34,-10 14,-10"/>
<text text-anchor="start" x="37.629" y="-15.4" font-family="sans-serif" font-size="14.00" fill="#000000"> &#160;Declarations</text>
<polygon fill="#8dd3c7" stroke="transparent" points="127,-10 127,-30 147,-30 147,-10 127,-10"/>
<text text-anchor="start" x="150.7251" y="-15.4" font-family="sans-serif" font-size="14.00" fill="#000000"> &#160;Module</text>
<polygon fill="#80b1d3" stroke="transparent" points="213,-10 213,-30 233,-30 233,-10 213,-10"/>
<text text-anchor="start" x="236.7812" y="-15.4" font-family="sans-serif" font-size="14.00" fill="#000000"> &#160;Bootstrap</text>
<polygon fill="#fdb462" stroke="transparent" points="310,-10 310,-30 330,-30 330,-10 310,-10"/>
<text text-anchor="start" x="333.6732" y="-15.4" font-family="sans-serif" font-size="14.00" fill="#000000"> &#160;Providers</text>
<polygon fill="#fb8072" stroke="transparent" points="406,-10 406,-30 426,-30 426,-10 406,-10"/>
<text text-anchor="start" x="429.7258" y="-15.4" font-family="sans-serif" font-size="14.00" fill="#000000"> &#160;Exports</text>
<g id="clust1" class="cluster">
<title>cluster_UserModule</title>
<polygon fill="none" stroke="#000000" stroke-dasharray="1,5" points="37.5,-70 37.5,-195 458.5,-195 458.5,-70 37.5,-70"/>
</g>
<g id="clust2" class="cluster">
<title>cluster_UserModule_declarations</title>
<polygon fill="none" stroke="#000000" points="167.5,-78 167.5,-130 450.5,-130 450.5,-78 167.5,-78"/>
</g>
<g id="clust5" class="cluster">
<title>cluster_UserModule_imports</title>
<polygon fill="none" stroke="#000000" points="45.5,-78 45.5,-130 159.5,-130 159.5,-78 45.5,-78"/>
</g>
<!-- KycFormComponent -->
<g id="node1" class="node">
<title>KycFormComponent</title>
<polygon fill="#ffffb3" stroke="#000000" points="442.9874,-122 308.0126,-122 308.0126,-86 442.9874,-86 442.9874,-122"/>
<text text-anchor="middle" x="375.5" y="-99.8" font-family="Times,serif" font-size="14.00" fill="#000000">KycFormComponent</text>
</g>
<!-- UserModule -->
<g id="node3" class="node">
<title>UserModule</title>
<polygon fill="#8dd3c7" stroke="#000000" points="275.4762,-187 272.4762,-191 251.4762,-191 248.4762,-187 189.5238,-187 189.5238,-151 275.4762,-151 275.4762,-187"/>
<text text-anchor="middle" x="232.5" y="-164.8" font-family="Times,serif" font-size="14.00" fill="#000000">UserModule</text>
</g>
<!-- KycFormComponent&#45;&gt;UserModule -->
<g id="edge1" class="edge">
<title>KycFormComponent&#45;&gt;UserModule</title>
<path fill="none" stroke="#000000" d="M375.5,-122.1061C375.5,-141.3391 375.5,-169 375.5,-169 375.5,-169 285.7928,-169 285.7928,-169"/>
<polygon fill="#000000" stroke="#000000" points="285.7928,-165.5001 275.7928,-169 285.7927,-172.5001 285.7928,-165.5001"/>
</g>
<!-- LoginComponent -->
<g id="node2" class="node">
<title>LoginComponent</title>
<polygon fill="#ffffb3" stroke="#000000" points="289.7758,-122 175.2242,-122 175.2242,-86 289.7758,-86 289.7758,-122"/>
<text text-anchor="middle" x="232.5" y="-99.8" font-family="Times,serif" font-size="14.00" fill="#000000">LoginComponent</text>
</g>
<!-- LoginComponent&#45;&gt;UserModule -->
<g id="edge2" class="edge">
<title>LoginComponent&#45;&gt;UserModule</title>
<path fill="none" stroke="#000000" d="M232.5,-122.1061C232.5,-122.1061 232.5,-140.991 232.5,-140.991"/>
<polygon fill="#000000" stroke="#000000" points="229.0001,-140.9909 232.5,-150.991 236.0001,-140.991 229.0001,-140.9909"/>
</g>
<!-- SharedModule -->
<g id="node4" class="node">
<title>SharedModule</title>
<polygon fill="#8dd3c7" stroke="#000000" points="151.9231,-122 148.9231,-126 127.9231,-126 124.9231,-122 53.0769,-122 53.0769,-86 151.9231,-86 151.9231,-122"/>
<text text-anchor="middle" x="102.5" y="-99.8" font-family="Times,serif" font-size="14.00" fill="#000000">SharedModule</text>
</g>
<!-- SharedModule&#45;&gt;UserModule -->
<g id="edge3" class="edge">
<title>SharedModule&#45;&gt;UserModule</title>
<path fill="none" stroke="#000000" d="M102.5,-122.1061C102.5,-141.3391 102.5,-169 102.5,-169 102.5,-169 179.2119,-169 179.2119,-169"/>
<polygon fill="#000000" stroke="#000000" points="179.2119,-172.5001 189.2119,-169 179.2118,-165.5001 179.2119,-172.5001"/>
</g>
</g>
</svg>
